<svg xmlns="http://www.w3.org/2000/svg" version="1.1" xmlns:xlink="http://www.w3.org/1999/xlink" width="512" height="512" x="0" y="0" viewBox="0 0 465.968 465" style="enable-background:new 0 0 512 512" xml:space="preserve" class=""><g><path d="M186.96 191.89c37.392 0 67.7-30.308 67.7-67.699s-30.308-67.699-67.7-67.699c-37.39 0-67.698 30.309-67.698 67.7.043 37.37 30.328 67.656 67.699 67.699zm0-115.406c26.345 0 47.7 21.356 47.7 47.7s-21.355 47.699-47.7 47.699-47.698-21.356-47.698-47.7c.031-26.331 21.367-47.667 47.699-47.699zm0 0" fill="#b3b3b3" opacity="1" data-original="#000000" class=""></path><path d="M415.969.484H50C22.398.516.031 22.883 0 50.484v270c.031 27.602 22.398 49.97 50 50h365.969c27.601-.03 49.969-22.398 50-50v-270c-.031-27.601-22.399-49.968-50-50zM50 20.484h365.969c16.558.02 29.98 13.438 30 30v197.153l-59.832-84.774a50.007 50.007 0 0 0-40.41-21.164 49.994 49.994 0 0 0-40.778 20.453l-68.101 92.98c-9.48 12.997-27.54 16.177-40.887 7.2l-50.914-34.07a49.913 49.913 0 0 0-55.344-.184l-69.7 46.418V50.484c.02-16.558 13.438-29.98 29.997-30zm365.969 330H50c-16.563-.02-29.98-13.441-30-30v-21.953l80.742-53.77a29.938 29.938 0 0 1 33.176.122l50.914 34.074c22.25 14.961 52.348 9.656 68.145-12.008l68.101-92.98a29.982 29.982 0 0 1 24.465-12.274 30.003 30.003 0 0 1 24.246 12.7l76.172 107.925v38.164c-.02 16.559-13.438 29.977-29.992 30zm0 0" fill="#b3b3b3" opacity="1" data-original="#000000" class=""></path></g></svg>