<?xml version="1.0" encoding="utf-8"?>
<!-- Generator: Adobe Illustrator 16.0.0, SVG Export Plug-In . SVG Version: 6.00 Build 0)  -->
<!DOCTYPE svg PUBLIC "-//W3C//DTD SVG 1.1//EN" "http://www.w3.org/Graphics/SVG/1.1/DTD/svg11.dtd">
<svg version="1.1" id="Layer_1" xmlns="http://www.w3.org/2000/svg" xmlns:xlink="http://www.w3.org/1999/xlink" x="0px" y="0px"
	 width="931px" height="269px" viewBox="0 0 931 269" enable-background="new 0 0 931 269" xml:space="preserve">
<g>
	<defs>
		<rect id="SVGID_1_" x="-34" y="-367" width="1000" height="1000"/>
	</defs>
	<clipPath id="SVGID_2_">
		<use xlink:href="#SVGID_1_"  overflow="visible"/>
	</clipPath>
	<path clip-path="url(#SVGID_2_)" fill="#063B87" d="M428.334,43.903h15.171c3.478,7.585,16.441,36.129,17.192,42.073
		c0.689-5.782,13.451-34.575,16.79-42.073h13.754l-30.138,69.381h-1.415L428.334,43.903z"/>
	<rect x="505.914" y="43.904" clip-path="url(#SVGID_2_)" fill="#063B87" width="14.159" height="68.774"/>
	<path clip-path="url(#SVGID_2_)" fill="#063B87" d="M534.64,43.903h15.172c3.479,7.585,16.442,36.129,17.192,42.073
		c0.689-5.782,13.45-34.575,16.791-42.073h13.754l-30.139,69.381h-1.415L534.64,43.903z"/>
	<rect x="612.221" y="43.904" clip-path="url(#SVGID_2_)" fill="#063B87" width="14.16" height="68.774"/>
	<path clip-path="url(#SVGID_2_)" fill="#063B87" d="M646.004,43.903c26.844-1.888,56.841,1.47,57.345,34.388
		c-0.474,32.927-30.461,36.28-57.345,34.385V43.903z M666.435,100.237c15.271,0,22.25-9.102,22.25-21.948
		c0.694-16.059-12.142-23.724-28.524-21.946v43.894H666.435z"/>
	<path clip-path="url(#SVGID_2_)" fill="#063B87" d="M431.065,165.703c-1.865-33.017,45.94-48.541,62.907-21.138l-10.822,7.687
		c-10.18-17.179-39.302-7.782-37.52,13.451c-1.682,22.211,28.641,30.889,38.532,12.541l11.024,7.588
		C478.738,213.821,429.201,200.038,431.065,165.703"/>
	<path clip-path="url(#SVGID_2_)" fill="#063B87" d="M510.467,175.212v-43.895h14.16v43.084c0,10.014,4.349,13.856,13.755,13.856
		c9.306,0,13.554-3.843,13.554-13.856v-43.084h14.158v43.895C567.673,209.831,508.837,209.65,510.467,175.212"/>
	<path clip-path="url(#SVGID_2_)" fill="#063B87" d="M578.745,186.537l11.53-6.674c2.881,8.883,22.476,12.91,23.564,1.616
		c-1.946-13.351-31.606-8.791-30.846-32.264c-1.11-20.314,32.193-25.951,40.858-7.379l-11.025,7.079
		c-2.985-7.753-15.459-8.396-15.88,0c1.539,13.005,31.864,8.852,31.052,32.364c0,12.741-10.014,19.72-23.463,19.72
		C591.387,201,582.89,194.731,578.745,186.537"/>
	<polygon clip-path="url(#SVGID_2_)" fill="#063B87" points="657.739,143.756 638.119,143.756 638.119,131.317 691.521,131.317 
		691.521,143.756 671.899,143.756 671.899,200.09 657.739,200.09 	"/>
	<path clip-path="url(#SVGID_2_)" fill="#063B87" d="M700.631,165.703c-0.259-46.392,71.465-46.387,71.2,0.003
		C772.091,212.095,700.366,212.094,700.631,165.703 M757.268,165.703c0.713-29.813-42.79-29.813-42.074,0
		C714.481,195.519,757.984,195.516,757.268,165.703"/>
	<path clip-path="url(#SVGID_2_)" fill="#063B87" d="M788.932,130.608h1.112l33.882,37.221l33.375-37.221h1.215v69.483h-13.654
		c0.002-6.602-0.164-32.935,0.506-37.826c-1.828,3.701-17.005,20.587-21.037,24.981h-1.314
		c-4.065-4.434-19.179-21.245-21.038-24.981c0.669,4.807,0.506,31.316,0.507,37.826h-13.553V130.608z"/>
	<path clip-path="url(#SVGID_2_)" fill="#063B87" d="M871.977,186.537l11.529-6.674c2.881,8.883,22.479,12.91,23.566,1.616
		c-1.948-13.351-31.608-8.791-30.848-32.264c-1.11-20.314,32.194-25.951,40.859-7.379l-11.024,7.079
		c-2.987-7.753-15.461-8.396-15.88,0c1.539,13.005,31.862,8.852,31.05,32.364c0,12.741-10.011,19.72-23.463,19.72
		C884.617,201,876.123,194.731,871.977,186.537"/>
	<path clip-path="url(#SVGID_2_)" fill="#32C4F3" d="M174.444,110.72L14,10.767h60.49C98.558,34.834,135.961,72.237,174.444,110.72"
		/>
	<polygon clip-path="url(#SVGID_2_)" fill="#05B2BF" points="293.476,229.753 263.222,260.006 174.444,110.72 	"/>
	<polygon clip-path="url(#SVGID_2_)" fill="#FB0898" points="216.924,72.024 221.334,67.615 164.503,10.765 104.005,10.765 
		191.096,97.855 	"/>
	<path clip-path="url(#SVGID_2_)" fill="#960E8F" d="M385.605,82.124l-74.854,74.864c-0.027-0.027-44.269-44.268-44.308-44.309
		h-0.015c-0.008-0.008,74.851-74.847,74.851-74.855l-30.43-30.429v-0.01L236.17,82.447l-0.005-0.006l-30.257,30.239l104.843,104.845
		l105.115-105.143L385.605,82.124z M310.776,157.051l-0.005-0.005l15.929-15.911L310.776,157.051z"/>
	<polygon clip-path="url(#SVGID_2_)" fill="#FD0651" points="216.924,72.024 191.096,97.855 104.005,10.765 	"/>
	<path clip-path="url(#SVGID_2_)" fill="#FD0651" d="M310.754,217.53L205.909,112.687l30.26-30.239
		C254.707,116.019,292.175,183.878,310.754,217.53"/>
	<path clip-path="url(#SVGID_2_)" fill="#FB0898" d="M310.849,6.9c-7.462,17.679-37.597,89.109-44.421,105.301l-30.26-30.239
		l71.685-71.684L310.849,6.9z"/>
	<path clip-path="url(#SVGID_2_)" fill="#FB0898" d="M415.865,112.295c-12.599,12.601-63.322,63.313-74.854,74.872h-0.019
		c6.685-15.745,37.329-87.947,44.614-105.13L415.865,112.295z"/>
	<polygon clip-path="url(#SVGID_2_)" fill="#063B87" points="263.222,260.004 14,10.766 174.443,110.72 	"/>
</g>
</svg>
